<?xml version="1.0" encoding="UTF-8"?>
<svg width="256" height="256" version="1.1" viewBox="0 0 256 256" xmlns="http://www.w3.org/2000/svg" xmlns:cc="http://creativecommons.org/ns#" xmlns:dc="http://purl.org/dc/elements/1.1/" xmlns:rdf="http://www.w3.org/1999/02/22-rdf-syntax-ns#">
 <g transform="matrix(.96355 0 0 .96355 4.9656 4.9656)" fill="none" stroke="#000" stroke-width="10">
  <ellipse cx="128" cy="128" rx="124" ry="124"/>
  <path d="m78.326 65.957c-17.79 17.699-17.681 17.809-32.553 32.627-4.7373 4.8847-23.772 23.569-22.909 24.426 0.81914 0.81285 19.907-18.273 22.909-21.033v79.35c-1e-6 4.7813 3.8476 8.6309 8.6289 8.6309h119.44c-4.4361 4.509-33.979 34.394-33.147 35.286 0.82077 0.87971 30.9-29.482 36.737-35.286 16.708-16.359 16.704-16.37 33.143-32.734 5.2216-5.5619 23.692-23.705 22.687-24.666-1.0465-1.001-19.047 17.218-22.687 20.721v-78.689c0-4.7813-3.8496-8.6309-8.6309-8.6309h-119.88c6.6423-6.9279 34.312-34.043 33.239-35.293-1.3848-1.2561-28.923 27.228-36.982 35.293z"/>
  <circle cx="97.148" cy="116.43" r="22.699"/>
 </g>
</svg>